<?xml version="1.0" encoding="utf-8"?>
<!-- Generator: Adobe Illustrator 24.1.0, SVG Export Plug-In . SVG Version: 6.00 Build 0)  -->
<svg version="1.1" id="prefix__Cards" xmlns="http://www.w3.org/2000/svg" xmlns:xlink="http://www.w3.org/1999/xlink" x="0px"
	 y="0px" viewBox="0 0 160 100" style="enable-background:new 0 0 160 100;" xml:space="preserve">
<style type="text/css">
	.st0{fill:#006FCF;}
</style>
<g>
	<path id="Path_5218_1_" class="st0" d="M152.7,56.7l1.9-4.3h-10c-3.3-0.3-6.2,2-6.6,5.3c0,0.2,0,0.5,0,0.7c-0.2,3,2.1,5.5,5.1,5.7
		c0.3,0,0.6,0,0.9,0h4.5c0.9-0.1,1.6,0.6,1.7,1.4c0,0,0,0.1,0,0.1c0,0.8-0.6,1.5-1.5,1.6c-0.1,0-0.1,0-0.2,0h-9.8v4.3h9.8
		c3.3,0.4,6.2-2,6.6-5.2c0-0.3,0-0.6,0-0.9c0.2-2.9-2-5.3-4.8-5.5c-0.4,0-0.7,0-1.1,0h-4.5c-0.9,0.1-1.6-0.6-1.7-1.4
		c0,0,0-0.1,0-0.1c0-0.8,0.6-1.5,1.4-1.6c0.1,0,0.2,0,0.2,0L152.7,56.7z M125.5,58.2c0-0.8,0.6-1.5,1.4-1.6c0.1,0,0.2,0,0.2,0h8.2
		l1.9-4.3h-10.1c-3.3-0.3-6.2,2-6.6,5.3c0,0.2,0,0.5,0,0.7c-0.2,3,2.1,5.5,5.1,5.7c0.3,0,0.6,0,0.8,0h4.5c0.9-0.1,1.6,0.6,1.7,1.4
		c0,0,0,0.1,0,0.1c0,0.8-0.6,1.5-1.4,1.6c-0.1,0-0.2,0-0.2,0h-9.7v4.3h9.8c3.3,0.4,6.2-2,6.6-5.2c0-0.3,0-0.6,0-0.9
		c0.2-2.9-2-5.3-4.8-5.5c-0.4,0-0.7,0-1.1,0h-4.5C126.1,59.8,125.5,59.1,125.5,58.2L125.5,58.2z M103.5,71.4H119v-4.3h-10.7v-3.3
		h10.4v-4.1h-10.4v-3.1H119v-4.2h-15.5V71.4L103.5,71.4z M102.8,71.4l-6.2-6.9c3.3-0.7,5.4-3.9,4.8-7.2c-0.6-3-3.3-5.1-6.3-4.9H84.4
		v19h4.8v-6.7h1.9l5.7,6.7L102.8,71.4L102.8,71.4L102.8,71.4z M94.5,60.6h-5.3v-3.9h5.3c1.1-0.1,2.1,0.7,2.2,1.8c0,0.1,0,0.2,0,0.2
		C96.7,59.7,96,60.6,94.5,60.6L94.5,60.6z M82.4,58.8c0.2-3.4-2.4-6.2-5.8-6.4c-0.3,0-0.5,0-0.8,0H65.1v19h4.8v-6.2h5.7
		c3.5,0.2,6.5-2.4,6.8-5.9C82.4,59.2,82.4,59,82.4,58.8L82.4,58.8z M77.5,58.8c0,1.1-0.9,2.1-2,2.1c-0.1,0-0.1,0-0.2,0h-5.4v-4.3
		h5.4c1.1-0.1,2.1,0.8,2.2,1.9C77.5,58.7,77.5,58.7,77.5,58.8L77.5,58.8z M64.7,71.4l-7.7-9.6l7.6-9.4h-5.8l-4.5,5.8l-4.5-5.8h-6
		l7.6,9.5l-7.6,9.5h5.9l4.5-5.9l4.5,5.9L64.7,71.4L64.7,71.4z M27.8,71.4h15.5v-4.3H32.6v-3.3H43v-4.1H32.6v-3.1h10.7v-4.2H27.8
		L27.8,71.4L27.8,71.4z"/>
	<path id="Path_5219_1_" class="st0" d="M152.4,47.5v-19h-4.8v11.8l-7.6-11.8h-6.2v19h4.8V35.2l7.8,12.3L152.4,47.5z M127.9,47.5
		h5.5l-8.2-19H119l-8.2,19h5.4l1.6-3.9h8.6L127.9,47.5L127.9,47.5z M124.7,39.5h-5.3l2.7-6.5L124.7,39.5z M109.1,32.9h5.2v-4.4h-5.5
		c-4.8-0.3-8.9,3.3-9.2,8c0,0.4,0,0.9,0,1.4v0.2c-0.5,4.6,2.8,8.8,7.4,9.3c0.5,0.1,0.9,0.1,1.4,0h0.5l1.9-4.3h-1.6
		c-2.5,0.2-4.7-1.8-4.8-4.3c0-0.3,0-0.6,0-0.9v-0.2c-0.3-2.5,1.4-4.7,3.9-5C108.5,32.8,108.8,32.8,109.1,32.9z M92.4,47.5h4.8v-19
		h-4.8L92.4,47.5L92.4,47.5z M91.7,47.5l-6.2-6.9c3.3-0.6,5.5-3.7,4.9-7.1c-0.5-3.1-3.4-5.3-6.5-5H73.4v19h4.8v-6.7h1.9l5.7,6.7
		L91.7,47.5L91.7,47.5L91.7,47.5z M83.4,36.6h-5.3v-3.9h5.3c1.1-0.1,2.1,0.7,2.2,1.8c0,0.1,0,0.2,0,0.2
		C85.6,35.7,84.8,36.6,83.4,36.6L83.4,36.6z M55,47.5h15.5v-4.3H59.9V40h10.4v-4.1H59.9v-3.1h10.7v-4.2H55L55,47.5L55,47.5z
		 M47.1,47.5h4.8v-19h-7.6L40,40.7l-4.3-12.2h-7.7v19h4.8v-14l5,14h4.3l4.9-14L47.1,47.5L47.1,47.5z M22.1,47.5h5.5l-8.2-19h-6.2
		L5,47.5h5.3l1.6-3.9h8.6L22.1,47.5L22.1,47.5z M18.8,39.5h-5.2l2.7-6.5L18.8,39.5L18.8,39.5z"/>
</g>
</svg>
