<?xml version="1.0" encoding="utf-8"?>
<!-- Generator: Adobe Illustrator 24.1.0, SVG Export Plug-In . SVG Version: 6.00 Build 0)  -->
<svg version="1.1" id="prefix__Cards" xmlns="http://www.w3.org/2000/svg" xmlns:xlink="http://www.w3.org/1999/xlink" x="0px"
	 y="0px" viewBox="0 0 160 100" style="enable-background:new 0 0 160 100;" xml:space="preserve">
<g>
	<path d="M154.6,45.2c-1.6,0.1-5.2,0.6-6.2,0.7c-1-5.6-3.8-9.5-7.9-10.5c-8.3-1.9-16.7,9.3-22.4,29.9l4.3,1.2
		c5.5-19.8,12.7-27.8,17.2-26.8c2,0.5,3.8,3,4.5,6.9c-10.6,2.4-12.8,7.1-12.5,10.8c0.2,3.1,1.9,5.6,4.5,7c2.7,1.4,6,1.2,8.4-0.3
		c3-1.9,3.5-4.7,3.8-6.6c0,0,0.6-4.3,0.6-6c-1.7,0.2-3.2,0.6-4.5,0.9c-0.1,1.2-0.5,4.4-0.5,4.4c-0.3,1.7-0.5,2.8-1.8,3.6
		c-1.1,0.7-2.7,0.7-4,0.1c-0.9-0.4-2-1.4-2.1-3.3c-0.2-2.6,2.8-4.7,8.5-6.1c0,0,0,0,0.1,0c4.1-0.9,10.6-1.5,10.6-1.5L154.6,45.2z"/>
	<path d="M103.9,41c-5.1,0-9.2,4.1-9.2,9.2s4.1,9.2,9.2,9.2c5.1,0,9.2-4.1,9.2-9.2S109,41,103.9,41z M103.9,55.4
		c-2.9,0-5.2-2.3-5.2-5.2c0-2.9,2.3-5.2,5.2-5.2s5.2,2.3,5.2,5.2C109.1,53,106.8,55.4,103.9,55.4z"/>
	<path d="M53.1,32.7h-4.4v26h4.4V32.7z"/>
	<path d="M18.6,41.3v0.9c-1.3-0.7-2.8-1.2-4.4-1.2C9.1,41,5,45.1,5,50.1s4.1,9.2,9.2,9.2c1.6,0,3.1-0.4,4.4-1.2V59H23V41.3
		L18.6,41.3L18.6,41.3z M14.2,55.4C11.3,55.4,9,53,9,50.1c0-2.9,2.3-5.2,5.2-5.2s5.2,2.3,5.2,5.2C19.4,53,17.1,55.4,14.2,55.4z"/>
	<path d="M36.1,41c-1.6,0-3.1,0.4-4.4,1.2v-0.9h-4.4v26h4.4v-9.2c1.3,0.7,2.8,1.2,4.4,1.2c5.1,0,9.2-4.1,9.2-9.2S41.1,41,36.1,41z
		 M36.1,55.4c-2.9,0-5.2-2.3-5.2-5.2c0-2.9,2.3-5.2,5.2-5.2s5.2,2.3,5.2,5.2C41.3,53,38.9,55.4,36.1,55.4z"/>
	<path d="M93.7,41.2H77.6v3.7h9.3l-9.6,14.2h16v-3.7h-9.2L93.7,41.2z"/>
	<path d="M70.1,41.3v0.9c-1.3-0.7-2.8-1.2-4.4-1.2c-5.1,0-9.2,4.1-9.2,9.2s4.1,9.2,9.2,9.2c1.6,0,3.1-0.4,4.4-1.2V59h4.4V41.3
		L70.1,41.3L70.1,41.3z M65.7,55.4c-2.9,0-5.2-2.3-5.2-5.2c0-2.9,2.3-5.2,5.2-5.2s5.2,2.3,5.2,5.2C70.9,53,68.6,55.4,65.7,55.4z"/>
</g>
</svg>
