<?xml version="1.0" encoding="utf-8"?>
<!-- Generator: Adobe Illustrator 24.1.0, SVG Export Plug-In . SVG Version: 6.00 Build 0)  -->
<svg version="1.1" id="prefix__Cards" xmlns="http://www.w3.org/2000/svg" xmlns:xlink="http://www.w3.org/1999/xlink" x="0px"
	 y="0px" viewBox="0 0 160 100" style="enable-background:new 0 0 160 100;" xml:space="preserve">
<style type="text/css">
	.st0{fill:#2A3F90;}
</style>
<g>
	<path id="y" class="st0" d="M155,36.1h-7.8l-4.5,19.1l-0.6,2.6c-0.4,0.1-0.9,0.2-1.3,0.3c-0.8,0.2-1.7,0.2-2.5,0.2
		c-0.8,0-1.6-0.1-2.4-0.4c-0.6-0.2-1-0.7-1.2-1.2c-0.2-0.6-0.3-1.2-0.3-1.9c0-0.8,0.2-1.6,0.4-2.3l2.4-9.9l1.5-6.6h-7.9l-3.6,15.2
		c-0.4,1.7-0.7,3.5-0.7,5.2c-0.1,1.5,0.2,3,0.7,4.4c0.6,1.3,1.5,2.3,2.9,3c1.4,0.7,3.3,1.1,5.7,1.1c1.5,0,3-0.1,4.5-0.4
		c0,0,0.1,0,0.2,0c-0.4,1.6-1.1,2.9-2.2,3.8c-1.1,1-2.8,1.5-5,1.5c-0.9,0-1.7,0-2.6-0.2l-1.5,6.4c1.1,0.1,2.3,0.2,3.4,0.2
		c2.4,0,4.5-0.3,6.2-0.8c1.7-0.5,3.2-1.4,4.6-2.5c1.3-1.2,2.4-2.6,3.2-4.1c0.9-1.7,1.5-3.6,2.1-5.9l5.4-22.6L155,36.1z"/>
	<path id="a" class="st0" d="M122.3,52.4c-0.5,2-0.6,4-0.4,6c0.2,2,1,5.1,1.7,6.6h-7.5c-0.9-1.5-0.9-2.3-1.1-2.8
		c-1,0.8-2.1,1.5-3.3,2c-1.3,0.5-2.6,0.8-4,0.8c-1.7,0-3.3-0.3-4.5-0.9c-1.2-0.6-2.3-1.4-3-2.5c-0.8-1.1-1.4-2.3-1.7-3.6
		c-0.9-3.7-0.6-7.7,0.7-11.2c0.8-2.1,2.1-4,3.6-5.6c1.5-1.6,5.2-5.1,11.2-5.1h12.1L122.3,52.4z M116.8,42.7c-3.7,0-4.3,0-5.8,0.8
		c-1.1,0.6-2,1.4-2.7,2.3c-1.6,2.1-2.5,4.6-2.5,7.2c0,1.7,0.3,3,0.8,4c0.6,1,1.6,1.5,3.1,1.5c0.7,0,1.5-0.2,2.2-0.5
		c0.8-0.4,1.5-0.9,2.1-1.6c0.1-0.9,0.2-1.8,0.4-2.7c0.2-1,0.4-1.9,0.5-2.6L116.8,42.7"/>
	<path id="p" class="st0" d="M96,47.6c0,2.4-0.4,4.8-1.3,7.1c-0.8,2.1-2,3.9-3.5,5.5c-1.5,1.6-3.4,2.8-5.4,3.6
		c-2.2,0.9-4.5,1.3-6.8,1.3c-1.2,0-2.4-0.1-3.6-0.3L73,74.3h-7.8l9.1-38.1h10.4c2,0,3.7,0.3,5.1,0.9c1.3,0.5,2.6,1.4,3.5,2.5
		c0.9,1.1,1.6,2.3,2,3.7C95.8,44.7,96,46.2,96,47.6z M76.8,58.4c0.6,0.2,1.4,0.2,2.2,0.2c1.3,0,2.6-0.2,3.7-0.7
		c1.1-0.5,2.1-1.2,2.9-2.1c0.8-1,1.4-2.1,1.9-3.3c0.5-1.4,0.7-2.8,0.7-4.2c0-1.5-0.3-2.8-1-3.8c-0.7-1.1-1.8-1.6-3.5-1.6h-3.1
		L76.8,58.4z"/>
	<path id="t" class="st0" d="M60.4,58.4c-0.8,0-1.6-0.1-2.4-0.4c-0.6-0.2-1-0.7-1.2-1.2c-0.2-0.6-0.3-1.2-0.3-1.9
		c0.1-0.8,0.2-1.5,0.4-2.3l2.4-9.9h8.9l1.6-6.6h-8.9l2.1-8.3l-8.3,1.2l-5.3,22.3c-0.4,1.7-0.7,3.4-0.8,5.2c-0.1,1.5,0.1,3,0.7,4.4
		c0.6,1.3,1.5,2.3,2.9,3c1.4,0.7,3.3,1.1,5.7,1.1c1.5,0,3-0.1,4.5-0.4c0.1,0,0.3-0.1,0.4-0.1l1.6-6.7c-0.5,0.2-1.1,0.3-1.6,0.4
		C62.1,58.3,61.3,58.4,60.4,58.4z"/>
	<path id="i_bottom" class="st0" d="M40.6,36.1L33.7,65h7.8l6.8-28.9H40.6z"/>
	<path id="i_top" class="st0" d="M49.2,32.8l1.2-5h-7.8l-1.2,5H49.2z"/>
	<path id="b" class="st0" d="M23.3,36.2c1.5,0,3,0.3,4.4,0.9c1.2,0.5,2.2,1.4,3,2.4c0.8,1.1,1.4,2.3,1.8,3.6
		c0.4,1.4,0.6,2.9,0.6,4.4c0,2.3-0.4,4.7-1.4,6.8c-0.9,2.1-2.1,4.1-3.7,5.6c-1.5,1.6-3.4,2.9-5.5,3.7c-2.1,0.9-4.5,1.4-6.8,1.4
		c-0.3,0-0.9,0-1.7,0c-0.9,0-1.8-0.1-2.7-0.2c-1-0.2-2.1-0.4-3.2-0.6C7.1,63.9,6,63.5,5,63.1L14.1,25l8.1-1.3L19,37.2
		c0.7-0.3,1.4-0.6,2.1-0.7C21.8,36.3,22.6,36.2,23.3,36.2z M16.5,58.6c1.2,0,2.4-0.3,3.5-0.9c1.1-0.6,2.1-1.4,2.8-2.4
		c0.8-1,1.4-2.1,1.9-3.4c0.4-1.3,0.7-2.6,0.7-3.9c0-1.7-0.3-3-0.8-3.9s-1.7-1.4-3.2-1.4c-0.6,0-1.2,0.1-1.8,0.2
		c-0.8,0.2-1.5,0.6-2.1,1.1L14,58.4C14.8,58.5,15.7,58.6,16.5,58.6L16.5,58.6z"/>
</g>
</svg>
