<svg height="32" viewBox="0 0 36 32" width="36" xmlns="http://www.w3.org/2000/svg" xmlns:xlink="http://www.w3.org/1999/xlink"><clipPath id="a"><path d="m1375 357h36v32h-36z"/></clipPath><g clip-path="url(#a)" transform="translate(-1375 -357)"><path d="m31.48 32.783a8.553 8.553 0 0 0 -13.656.983 13.02 13.02 0 0 0 -.845 1.371 13.009 13.009 0 0 0 -.845-1.371 8.553 8.553 0 0 0 -13.656-.983 10.293 10.293 0 0 0 -2.478 6.837c0 2.826 1.1 5.454 3.472 8.271a77.289 77.289 0 0 0 8.689 8.118c1.314 1.12 2.673 2.278 4.12 3.544l.043.038a.995.995 0 0 0 1.311 0l.043-.038c1.447-1.266 2.806-2.424 4.12-3.544a77.279 77.279 0 0 0 8.689-8.118c2.369-2.817 3.472-5.445 3.472-8.271a10.293 10.293 0 0 0 -2.479-6.837zm-10.973 21.711c-1.133.965-2.3 1.959-3.528 3.027-1.229-1.069-2.4-2.062-3.528-3.028-6.902-5.881-11.461-9.766-11.461-14.873a8.307 8.307 0 0 1 1.98-5.52 6.641 6.641 0 0 1 5.05-2.273 6.707 6.707 0 0 1 5.49 3.09 11.8 11.8 0 0 1 1.523 3.028.995.995 0 0 0 1.892 0 11.8 11.8 0 0 1 1.523-3.028 6.566 6.566 0 0 1 10.54-.817 8.307 8.307 0 0 1 1.981 5.521c-.001 5.106-4.56 8.991-11.462 14.873z" transform="translate(1376.011 328.164)"/><circle cx="6" cy="6" r="6" transform="translate(1378 358)"/><circle cx="6" cy="6" r="6" transform="translate(1378 363)"/><circle cx="6" cy="6" r="6" transform="translate(1377 359)"/><circle cx="6" cy="6" r="6" transform="translate(1381 361)"/><circle cx="6" cy="6" r="6" transform="translate(1380 367)"/><circle cx="6" cy="6" r="6" transform="translate(1384 370)"/><circle cx="6" cy="6" r="6" transform="translate(1387 374)"/><circle cx="6" cy="6" r="6" transform="translate(1396 359)"/><circle cx="6" cy="6" r="6" transform="translate(1393 360)"/><circle cx="6" cy="6" r="6" transform="translate(1389 366)"/><circle cx="6" cy="6" r="6" transform="translate(1391 369)"/><circle cx="6" cy="6" r="6" transform="translate(1395 366)"/><circle cx="6" cy="6" r="6" transform="translate(1397 362)"/></g></svg>