<?xml version="1.0" encoding="utf-8"?>
<!-- Generator: Adobe Illustrator 24.1.0, SVG Export Plug-In . SVG Version: 6.00 Build 0)  -->
<svg version="1.1" id="prefix__Cards" xmlns="http://www.w3.org/2000/svg" xmlns:xlink="http://www.w3.org/1999/xlink" x="0px"
	 y="0px" viewBox="0 0 160 100" style="enable-background:new 0 0 160 100;" xml:space="preserve">
<style type="text/css">
	.st0{fill:#1588CA;}
	.st1{fill:#5EB130;}
	.st2{fill:#F07F33;}
</style>
<g>
	<path class="st0" d="M79.8,36.1c3.9,0,7.7,0,11.6,0c1.3,0,1.9,0.5,1.8,1.8c-0.1,1.6-0.3,3.2-0.5,4.9c-0.2,2.4-0.5,4.8-0.8,7.2
		c-0.2,1.5-0.3,3-0.5,4.4c-0.2,1.2-0.8,1.7-2,1.7c-1.2,0-2.3,0-3.5,0c-5,0-9.9,0-14.9,0c-2,0-2.8-0.8-3-2.7
		c-0.3-2.7-0.6-5.4-0.9-8.1c-0.3-2.5-0.6-5-0.9-7.4c-0.1-1,0.6-1.8,1.6-1.8C71.9,36.1,75.8,36.1,79.8,36.1z"/>
	<path class="st1" d="M83.5,19c0.9-2.5,3-3.8,5.1-5.1c1.4-0.9,2.9-1.8,4.3-2.6c0.2-0.1,0.3-0.2,0.5-0.3c1-0.6,1.9-0.3,1.8,1.1
		c-0.1,1.1-0.1,2.3,0,3.4c0.1,1.7-0.7,2.8-2.1,3.7c-1.7,1-3.3,2-5,3.1c-1.2,0.8-1.9,1.8-2.2,3.2c-0.1,0.7,0,0.8,0.7,0.8
		c2.2,0,4.5,0,6.7,0c1.4,0,1.8,0.5,1.8,1.8c0,1.4,0,2.8,0,4.1c0,1-0.5,1.5-1.5,1.5c-9,0-18.1,0-27.1,0c-1.1,0-1.6-0.5-1.6-1.7
		c0-1.4,0-2.8,0-4.3c0-1.1,0.5-1.5,1.6-1.5c4.6,0,9.1,0,13.7,0c0.9,0,0.9,0,0.8-0.9c-0.1-1.7-1-2.8-2.5-3.5c-1.5-0.7-3-1.4-4.5-2.2
		c-1.5-0.7-2.3-1.8-2.2-3.5c0-1.2,0-2.5,0-3.7c0-0.9,0.4-1.2,1.3-1.1c0.5,0.1,1,0.4,1.5,0.6c1.3,0.6,2.5,1.2,3.8,1.8
		C81.4,15.6,81.9,16,83.5,19z"/>
	<path class="st2" d="M133.9,89.2c-0.2-0.1-0.5-0.1-0.7-0.1c-0.5-0.1-0.7-0.5-0.5-0.9c0.4-0.9,0.8-1.7,1.3-2.6
		c0.4-0.8,1.2-1.1,2.1-1.1c1.4,0,2.3-0.6,2.9-1.8c0.5-0.9,0.9-1.9,1.4-2.8c0.1-0.2,0.1-0.4,0-0.7c-1.9-3.6-3.7-7.1-5.6-10.7
		c-0.2-0.4-0.5-0.8-0.6-1.3c-0.1-0.6,0-0.8,0.6-0.8c0.8,0,1.5,0,2.3,0c1,0,1.6,0.4,2,1.2c1.2,2.2,2.3,4.5,3.5,6.7
		c0.1,0.1,0.1,0.3,0.3,0.4c0.3-0.6,0.6-1.2,0.9-1.8c0.8-1.7,1.7-3.5,2.5-5.2c0.5-1,1.2-1.5,2.3-1.4c0.7,0,1.5,0,2.2,0
		c0.5,0,0.7,0.3,0.6,0.7c-0.1,0.2-0.2,0.5-0.3,0.7c-2.7,5.6-5.4,11.2-8.2,16.8c-0.6,1.1-1.3,2.1-2.3,3c-1.1,0.9-2.3,1.3-3.6,1.5
		c-0.1,0-0.3,0.1-0.4,0.1C135.6,89.2,134.8,89.2,133.9,89.2z"/>
	<path class="st2" d="M155,79.6c-0.3,1.1-0.9,1.9-2.1,2.1c-1.3,0.3-2.7-0.5-3-1.8c-0.4-1.3,0.3-2.7,1.6-3.1c1.5-0.5,2.9,0.2,3.4,1.7
		c0,0.1,0.1,0.2,0.1,0.3C155,79.1,155,79.4,155,79.6z M154.4,79.3c0-1.3-0.8-2.1-2-2.1c-1.1-0.1-2.1,0.9-2.1,2
		c0,1.1,0.9,2.1,2.1,2.1C153.5,81.3,154.4,80.4,154.4,79.3z"/>
	<path class="st0" d="M15.2,74.2c1.7,0.7,2.5,2.1,3.4,3.6c0.5,0.9,1.1,1.7,1.6,2.6c0.1,0.2,0.2,0.3,0.3,0.5c0.3,0.7,0,1.1-0.7,1.1
		c-0.8,0-1.6,0-2.4,0c-0.9,0-1.6-0.4-2.1-1.1c-0.7-1-1.3-2-1.9-3c-0.7-1.1-1.6-1.8-2.9-2c-0.4-0.1-0.5,0.1-0.5,0.4c0,1.5,0,3,0,4.5
		c0,1-0.3,1.3-1.3,1.3c-0.8,0-1.7,0-2.5,0c-0.7,0-1.1-0.3-1.1-1.1c0-1,0-2,0-3c0-4.9,0-9.7,0-14.6c0-0.2,0-0.4,0-0.7
		c0.1-0.5,0.4-0.7,0.9-0.7c1,0,2.1,0,3.1,0c0.6,0,0.9,0.4,0.9,1c0,0.6,0,1.3,0,1.9c0,2.4,0,4.7,0,7.1c0,0.6,0,0.6,0.6,0.5
		c1.3-0.2,2.2-0.8,2.7-2c0.4-0.9,0.8-1.8,1.2-2.6c0.5-1,1.2-1.5,2.3-1.5c0.8,0,1.5,0,2.3,0c0.8,0,1,0.3,0.8,1
		c-0.3,0.7-0.6,1.4-0.9,2.1c-0.3,0.7-0.6,1.4-1,2.1c-0.5,1.1-1.3,2-2.5,2.5c-0.1,0-0.1,0.1-0.2,0.1C15.2,74.1,15.2,74.1,15.2,74.2z"
		/>
	<path class="st0" d="M86,74.1c1.6,0.6,2.5,1.9,3.3,3.2c0.6,1.1,1.3,2.1,1.9,3.2c0.1,0.2,0.2,0.4,0.2,0.6c0.1,0.5-0.1,0.8-0.6,0.8
		c-1,0-2.1,0.1-3.1,0c-0.9-0.1-1.4-0.6-1.9-1.3c-0.6-0.9-1.1-1.9-1.7-2.8c-0.6-1.1-1.6-1.7-2.8-1.9c-0.5-0.1-0.5,0.1-0.5,0.5
		c0,1.5,0,3,0,4.5c0,0.9-0.3,1.2-1.2,1.2c-0.9,0-1.8,0-2.7,0c-0.7,0-1-0.3-1-0.9c0-6,0-12.1,0-18.1c0-0.7,0.3-0.9,0.9-0.9
		c0.9,0,1.9,0,2.8,0c0.7,0,1.1,0.3,1.1,1.1c0,3,0,5.9,0,8.9c0,0.7,0,0.7,0.7,0.6c1.3-0.2,2.2-0.9,2.7-2.1c0.4-0.9,0.8-1.7,1.2-2.6
		c0.4-1,1.2-1.4,2.3-1.4c0.8,0,1.5,0,2.3,0c0.7,0,1,0.4,0.7,1c-0.2,0.6-0.5,1.2-0.8,1.8c-0.4,0.8-0.8,1.7-1.2,2.5
		C88.3,72.7,87.4,73.6,86,74.1z"/>
	<path class="st2" d="M103,71.8c0-2.9,0-5.8,0-8.7c0-1.1,0.3-1.4,1.4-1.4c2.4,0,4.8,0,7.2,0c1.4,0,2.8,0,4.1,0.5
		c2.1,0.8,3.2,2.5,3.4,4.7c0.2,1.4,0,2.8-0.7,4c-0.9,1.7-2.5,2.4-4.3,2.7c-1.7,0.3-3.4,0.1-5.1,0.2c-1,0-0.9-0.1-0.9,0.9
		c0,1.9,0,3.9,0,5.8c0,0.9-0.3,1.2-1.2,1.2c-0.9,0-1.8,0-2.6,0c-0.8,0-1.1-0.3-1.1-1.2c0-2.7,0-5.4,0-8.2C103,72.2,103,72,103,71.8z
		 M108,67.8C108,67.8,108,67.8,108,67.8c0,0.8,0,1.7,0,2.5c0,0.4,0.1,0.6,0.5,0.5c0.6,0,1.3,0,1.9,0c0.8,0,1.7-0.1,2.5-0.3
		c1.4-0.4,2-1.3,2-2.9c0-1.3-0.8-2.3-2.1-2.6c-1.5-0.3-3-0.1-4.5-0.2c-0.3,0-0.3,0.2-0.3,0.4C108,66.1,108,66.9,108,67.8z"/>
	<path class="st0" d="M50.5,75.3c-1.6,0-3.3,0-4.9,0c-0.4,0-0.5,0.1-0.4,0.5c0.3,1.8,1.2,2.7,3.1,2.8c0.5,0,1.1,0,1.6-0.1
		c0.6-0.1,1.2-0.4,1.7-0.9c0.4-0.5,1-0.7,1.6-0.7c0.6,0,1.2,0,1.8,0c0.7,0,1.1,0.5,1,1.2c-0.2,1.7-1.2,2.6-2.7,3.1
		c-1.1,0.4-2.2,0.5-3.3,0.6c-1.7,0.1-3.4,0.1-5-0.4c-2.3-0.7-3.7-2.2-4.4-4.5c-0.6-2.1-0.6-4.2,0-6.2c0.7-2.3,2.2-3.8,4.5-4.5
		c2.3-0.7,4.6-0.7,6.8,0.1c2.5,0.9,3.9,2.7,4.4,5.2c0.2,1,0.2,2,0.2,2.9c0,0.6-0.4,0.9-1,0.9C53.8,75.3,52.2,75.3,50.5,75.3z
		 M48.3,72.3c0.9,0,1.9,0,2.8,0c0.2,0,0.4,0,0.4-0.3c-0.1-0.7-0.2-1.4-0.6-1.9c-0.8-1.1-2.1-1.3-3.6-1c-1.4,0.3-2,1.5-2.2,2.8
		c0,0.3,0.2,0.4,0.4,0.4C46.5,72.3,47.4,72.3,48.3,72.3z"/>
	<path class="st0" d="M38.3,74.2c0,2.2,0,4.4,0,6.6c0,0.9-0.3,1.2-1.2,1.2c-0.8,0-1.7,0-2.5,0c-0.8,0-1.1-0.3-1.2-1.1
		c0-0.2,0.1-0.4-0.1-0.5c-0.2-0.1-0.3,0.1-0.5,0.2c-2.4,2-5.7,2-8,0.7c-1.5-0.9-2.2-2.2-2.5-3.9c-0.1-0.7-0.2-1.4-0.2-2.1
		c0-2.6,0-5.2,0-7.8c0-0.9,0.3-1.2,1.2-1.2c0.9,0,1.7,0,2.6,0c0.8,0,1.1,0.3,1.1,1.1c0,1.4,0,2.8,0,4.3c0,1.4,0,2.8,0,4.2
		c0,1.1,0.4,2,1.4,2.5c1,0.5,2,0.3,2.9-0.2c0.6-0.3,1.2-0.8,1.7-1.3c0.2-0.2,0.2-0.5,0.2-0.8c0-2.8,0-5.6,0-8.4c0-0.2,0-0.4,0-0.6
		c0.1-0.6,0.4-0.9,1-0.9c1,0,1.9,0,2.9,0c0.7,0,1,0.3,1,1C38.3,69.7,38.3,72,38.3,74.2z"/>
	<path class="st0" d="M66.1,81.9c-1.7,0-3.4-0.1-5.1-0.7c-1.3-0.5-2.2-1.4-2.4-2.8c-0.2-1,0.2-1.4,1.2-1.5c0.5,0,1.1,0,1.6,0
		c0.7,0,1.2,0.2,1.7,0.7c0.6,0.7,1.4,0.9,2.2,1c0.8,0,1.6,0.1,2.4-0.1c0.8-0.2,1.3-0.5,1.3-1.1c0.1-0.5-0.3-0.9-1.1-1.2
		c-1-0.4-2-0.5-2.9-0.8c-1.5-0.4-3.1-0.7-4.4-1.6c-2-1.2-2.7-3.6-1.5-5.5c0.6-1.1,1.7-1.7,2.9-2.1c1.9-0.6,3.8-0.6,5.8-0.4
		c1.1,0.1,2.3,0.2,3.3,0.7c1.4,0.6,2.3,1.5,2.4,3c0.1,0.6-0.2,1.2-0.8,1.2c-0.9,0-1.7,0.1-2.6,0c-0.4-0.1-0.8-0.2-1-0.5
		c-0.7-0.8-1.6-1.1-2.6-1.1c-0.6,0-1.3-0.1-1.9,0.1c-0.3,0.1-0.6,0.2-0.8,0.4c-0.5,0.4-0.5,1-0.1,1.4c0.4,0.4,1,0.6,1.5,0.7
		c1.2,0.3,2.3,0.6,3.5,0.9c1.3,0.3,2.5,0.7,3.6,1.5c2.4,1.8,2.2,5.3-0.4,6.7c-1.1,0.6-2.3,0.9-3.5,1C67.6,81.9,66.8,81.9,66.1,81.9z
		"/>
	<path class="st2" d="M128.8,79.2c-0.3,0.5-0.5,0.9-0.8,1.2c-0.8,0.9-1.9,1.3-3.1,1.4c-0.8,0.1-1.6,0.1-2.4-0.2
		c-2.9-0.8-3.9-3.2-3-5.9c0.5-1.6,1.8-2.3,3.4-2.7c1.7-0.4,3.4-0.5,5.2-0.5c0.5,0,0.7-0.1,0.6-0.6c0-0.1,0-0.3,0-0.4
		c0-1-0.5-1.7-1.6-1.8c-1.3-0.2-2.5,0-3.7,0.4c-0.4,0.1-0.7,0.3-1.1,0.4c-0.4,0.2-0.8,0-1.1-0.3c-0.4-0.5-0.6-1-0.7-1.7
		c-0.1-0.5,0.1-0.8,0.7-1.1c1.1-0.5,2.2-0.7,3.4-0.9c1.6-0.2,3.2-0.3,4.8,0.2c2.5,0.8,3.9,2.8,3.9,5.4c0,2.8,0,5.6,0,8.4
		c0,0.8-0.2,1.1-1.1,1.1c-0.8,0-1.6,0-2.4,0c-0.7,0-1-0.3-1-1C128.8,80.3,128.8,79.8,128.8,79.2z M127.4,75c-1,0-2,0-3,0.4
		c-1,0.4-1.5,1.3-1.2,2.4c0.3,1,1.3,1.5,2.3,1.3c1.5-0.3,2.9-1.9,3.1-3.4c0.1-0.7,0-0.7-0.7-0.7C127.8,75,127.6,75,127.4,75z"/>
	<path class="st0" d="M98.1,74.3c0,2.2,0,4.3,0,6.5c0,0.9-0.3,1.1-1.2,1.1c-0.9,0-1.8,0-2.7,0c-0.6,0-0.8-0.2-1-0.8
		c0-0.2-0.1-0.5-0.1-0.7c0-4.1,0-8.1,0-12.2c0-0.2,0-0.3,0-0.5c0.1-0.8,0.3-1,1.1-1c0.9,0,1.8,0,2.7,0c0.8,0,1.1,0.3,1.1,1.1
		C98.1,69.9,98.1,72.1,98.1,74.3z"/>
	<path class="st1" d="M95.8,61.5c0.3,0,0.7,0,1,0c0.8,0.1,1.2,0.6,1.3,1.3c0.1,0.5,0.1,1-0.1,1.4c-0.2,0.6-0.6,0.9-1.2,1
		c-0.8,0.1-1.7,0.1-2.5,0c-0.3,0-0.6-0.2-0.8-0.4c-0.6-0.7-0.5-1.6-0.3-2.4c0.2-0.7,0.9-0.9,1.5-0.9C95.1,61.5,95.4,61.5,95.8,61.5z
		"/>
	<g>
		<path class="st2" d="M151.3,80.4v-2.3h1c0.3,0,0.4,0,0.5,0.1c0.1,0,0.2,0.1,0.3,0.2c0.1,0.1,0.1,0.2,0.1,0.4
			c0,0.2-0.1,0.3-0.2,0.4c-0.1,0.1-0.3,0.2-0.5,0.2c0.1,0.1,0.2,0.1,0.3,0.2c0.1,0.1,0.2,0.2,0.3,0.4l0.3,0.5h-0.6l-0.3-0.5
			c-0.1-0.2-0.2-0.3-0.2-0.3c0,0-0.1-0.1-0.1-0.1c-0.1,0-0.1,0-0.2,0h-0.1v1H151.3z M151.8,79.1h0.4c0.2,0,0.4,0,0.4,0
			c0.1,0,0.1-0.1,0.1-0.1c0,0,0-0.1,0-0.2c0-0.1,0-0.1-0.1-0.2c0,0-0.1-0.1-0.2-0.1c0,0-0.2,0-0.3,0h-0.4V79.1z"/>
	</g>
</g>
</svg>
