<?xml version="1.0" encoding="utf-8"?>
<!-- Generator: Adobe Illustrator 25.2.1, SVG Export Plug-In . SVG Version: 6.00 Build 0)  -->
<svg version="1.1" id="Capa_1" xmlns="http://www.w3.org/2000/svg" xmlns:xlink="http://www.w3.org/1999/xlink" x="0px" y="0px"
	 viewBox="0 0 73.7 27.8" style="enable-background:new 0 0 73.7 27.8;" xml:space="preserve">
<style type="text/css">
	.st0{fill:#AA8FFF;}
</style>
<g>
	<polygon points="2.2,22 2.9,27.1 25,27.1 24.2,21.2 13.9,21.2 13.8,20.5 23.3,13.9 22.7,8.7 0.6,8.7 1.3,14.6 11.6,14.6 11.7,15.3 
			"/>
	<polygon class="st0" points="25.3,8.7 27.5,27.1 49.7,27.1 47.4,8.7 	"/>
	<path d="M72.8,15.3c-0.5-4.1-3.8-6.6-8.2-6.6L50,8.7l2.3,18.4h6.6l-0.5-3.7h7C70.9,23.4,73.4,20,72.8,15.3z M64.7,18.3l-6.9,0
		l-0.5-4.4l7,0c1.6,0,2.5,0.9,2.6,2.2C66.9,16.9,66.5,18.3,64.7,18.3z"/>
	<ellipse transform="matrix(0.6849 -0.7286 0.7286 0.6849 6.416 22.7025)" cx="29.5" cy="3.9" rx="3.1" ry="3.5"/>
</g>
</svg>
