<?xml version="1.0" encoding="utf-8"?>
<!-- Generator: Adobe Illustrator 24.1.0, SVG Export Plug-In . SVG Version: 6.00 Build 0)  -->
<svg version="1.1" id="prefix__Cards" xmlns="http://www.w3.org/2000/svg" xmlns:xlink="http://www.w3.org/1999/xlink" x="0px"
	 y="0px" viewBox="0 0 160 100" style="enable-background:new 0 0 160 100;" xml:space="preserve">
<style type="text/css">
	.st0{fill:#FF5F00;}
	.st1{fill:#EB001B;}
	.st2{fill:#F79E1B;}
</style>
<g id="Group_3328">
	<rect id="Rectangle_17535-2" x="58.3" y="14.6" class="st0" width="43.4" height="70.7"/>
	<path id="Path_3528-2" class="st1" d="M62.8,50c0-13.8,6.4-26.9,17.3-35.4c-19.5-15.3-47.8-12-63.1,7.6S4.9,70,24.4,85.3
		c16.3,12.8,39.3,12.8,55.6,0C69.1,76.9,62.7,63.8,62.8,50z"/>
	<path id="Path_3530-2" class="st2" d="M152.7,50c0,24.8-20.1,45-44.9,45c-10.1,0-19.9-3.4-27.8-9.6c19.5-15.4,22.9-43.6,7.6-63.1
		c-2.2-2.8-4.8-5.4-7.6-7.6c19.5-15.4,47.7-12,63.1,7.5C149.4,30.1,152.7,39.9,152.7,50z"/>
</g>
</svg>
