<?xml version="1.0" encoding="utf-8"?>
<!-- Generator: Adobe Illustrator 24.1.0, SVG Export Plug-In . SVG Version: 6.00 Build 0)  -->
<svg version="1.1" id="prefix__Cards" xmlns="http://www.w3.org/2000/svg" xmlns:xlink="http://www.w3.org/1999/xlink" x="0px"
	 y="0px" viewBox="0 0 160 100" style="enable-background:new 0 0 160 100;" xml:space="preserve">
<style type="text/css">
	.st0{fill:#E60120;}
	.st1{fill:#FEFEFE;}
	.st2{fill:#E60020;}
	.st3{fill:#FAB010;}
</style>
<g>
	<path class="st0" d="M5,75.4c0-16.9,0-33.9,0-50.8c0.1,0,0.3,0,0.4,0c34.2,0,68.3,0,102.5,0c0.1,0,0.2,0,0.4,0c0,0-0.1,0.1-0.1,0.1
		c-1.8,1.3-3.3,2.9-4.7,4.7c-3.6,4.7-7.3,9.3-10.9,14c-0.2,0.3-0.2,0.3-0.4,0c-1.4-1.8-2.8-3.6-4.2-5.4c-0.1-0.2-0.2-0.2-0.3,0
		c-1.6,2.1-3.2,4.3-4.8,6.4c-0.1,0.2-0.1,0.3,0,0.4c1.4,1.8,2.8,3.5,4.1,5.3c0.1,0.2,0.1,0.3,0,0.4c-2.6,3.4-5.3,6.8-7.9,10.1
		c-1,1.2-1.9,2.4-2.9,3.7c-1.1,1.5-1,3.2,0.1,4.7c0.9,1.3,2.2,1.9,3.8,1.8c1.2-0.1,2.1-0.8,2.9-1.7c3.1-3.9,6.1-7.9,9.2-11.8
		c0.2-0.3,0.2-0.3,0.5,0c3.1,4,6.2,8,9.3,12c0.5,0.7,1.2,1.3,2.1,1.5c1.9,0.6,4.3-0.5,5.1-2.5c0.7-1.5,0.3-2.9-0.7-4.2
		c-3.5-4.5-7.1-9.1-10.6-13.6c-0.1-0.1-0.2-0.2-0.1-0.4c4.4-5.6,8.7-11.2,13.1-16.8c1.6-2,3.3-3.8,5.3-5.4c3-2.3,6.4-3.5,10.1-3.5
		c9.5-0.1,28.8,0,28.8,0s0,0.2,0,0.3c0,16.7,0,33.5,0,50.2c0,0.1,0,0.3,0,0.3s-0.2,0-0.3,0c-34,0-68.1,0-102.1,0c-0.1,0-0.2,0-0.3,0
		c0,0,0-0.1,0.1-0.1c1.8-1.3,3.3-2.9,4.6-4.7c3.4-4.4,6.8-8.8,10.2-13.1c0.3-0.3,0.5-0.6,0.8-1c1.5,2,3.1,3.9,4.6,5.8
		c0.1-0.1,0.1-0.1,0.1-0.2c1.6-2.2,3.2-4.3,4.9-6.5c0.1-0.2,0.1-0.2,0-0.4c-1.4-1.8-2.8-3.6-4.2-5.3c-0.1-0.2-0.1-0.3,0-0.4
		c1.7-2.1,3.3-4.2,5-6.4c1.9-2.4,3.8-4.8,5.6-7.3c1.3-1.7,1.2-3.6-0.1-5.2c-1.1-1.2-2.4-1.8-4-1.4c-1.1,0.2-1.8,0.9-2.5,1.7
		c-3.1,3.9-6.1,7.9-9.2,11.8c-0.2,0.2-0.2,0.2-0.4,0c-1.5-2-3.1-3.9-4.6-5.9c-1.7-2.1-3.3-4.2-5-6.3c-1.2-1.5-2.9-1.9-4.6-1.2
		c-1.6,0.6-2.7,2.2-2.8,3.8c0,1.1,0.4,1.9,1,2.8c3.5,4.5,7.1,9,10.6,13.6c0.2,0.2,0.2,0.3,0,0.5c-3.6,4.6-7.2,9.2-10.8,13.8
		c-1.5,2-3,4-4.8,5.8c-2.3,2.4-4.9,4.2-8,5.2c-1.3,0.4-2.5,0.6-3.9,0.6c-9.9,0-19.8,0-29.7,0C5.3,75.4,5.1,75.4,5,75.4z M151.1,50.1
		c0-1.6-0.2-3.2-0.5-4.7c-2.4-10.5-12.3-17.7-23.3-16.2c-4,0.5-7.5,2.1-10.5,4.7c-6.1,5.1-8.8,12.9-7.1,20.7
		c1.9,9,9.5,15.8,18.7,16.6c3.3,0.3,6.6-0.2,9.7-1.5C145.9,66.4,151.1,58.7,151.1,50.1z M51.2,50c0-1.4-0.2-3-0.5-4.5
		c-2-9-9.6-15.7-18.7-16.5c-4.2-0.4-8.2,0.5-11.8,2.5C12,36.1,7.8,45.3,9.8,54.5c1.9,9,9.5,15.8,18.7,16.6c3.3,0.3,6.6-0.2,9.7-1.5
		C46.1,66.4,51.2,58.7,51.2,50z"/>
	<path class="st1" d="M107.9,24.6c0.1,0,0.2,0,0.4,0c0,0-0.1,0.1-0.1,0.1c-1.8,1.3-3.3,2.9-4.7,4.7c-3.6,4.7-7.3,9.3-10.9,14
		c-0.2,0.3-0.2,0.3-0.4,0c-1.4-1.8-2.8-3.6-4.2-5.4c-0.1-0.2-0.2-0.2-0.3,0c-1.6,2.1-3.2,4.3-4.8,6.4c-0.1,0.2-0.1,0.3,0,0.4
		c1.4,1.8,2.8,3.5,4.1,5.3c0.1,0.2,0.1,0.3,0,0.4c-2.6,3.4-5.3,6.8-7.9,10.1c-1,1.2-1.9,2.4-2.9,3.7c-1.1,1.5-1,3.2,0.1,4.7
		c0.9,1.3,2.2,1.9,3.8,1.8c1.2-0.1,2.1-0.8,2.9-1.7c3.1-3.9,6.1-7.9,9.2-11.8c0.2-0.3,0.2-0.3,0.5,0c3.1,4,6.2,8,9.3,12
		c0.5,0.7,1.2,1.3,2.1,1.5c1.9,0.6,4.3-0.5,5.1-2.5c0.7-1.5,0.3-2.9-0.7-4.2c-3.5-4.5-7.1-9.1-10.6-13.6c-0.1-0.1-0.2-0.2-0.1-0.4
		c4.4-5.6,8.7-11.2,13.1-16.8c1.6-2,3.3-3.8,5.3-5.4c3-2.3,6.4-3.5,10.1-3.5c9.5-0.1,28.8,0,28.8,0v-4l-150,0l0,4c0.1,0,0.3,0,0.4,0
		C39.6,24.6,73.7,24.6,107.9,24.6z"/>
	<path class="st1" d="M154.5,79.4c0.2,0,0.3,0,0.4,0c0,0,0.1,0,0.1,0v-4h-0.3c0,0-68.1,0-102.1,0c-0.1,0-0.2,0-0.3,0
		c0,0,0-0.1,0.1-0.1c1.8-1.3,3.3-2.9,4.6-4.7c3.4-4.4,6.8-8.8,10.2-13.1c0.3-0.3,0.5-0.6,0.8-1c1.5,2,3.1,3.9,4.6,5.8
		c0.1-0.1,0.1-0.1,0.1-0.2c1.6-2.2,3.2-4.3,4.9-6.5c0.1-0.2,0.1-0.2,0-0.4c-1.4-1.8-2.8-3.6-4.2-5.3c-0.1-0.2-0.1-0.3,0-0.4
		c1.7-2.1,3.3-4.2,5-6.4c1.9-2.4,3.8-4.8,5.6-7.3c1.3-1.7,1.2-3.6-0.1-5.2c-1.1-1.2-2.4-1.8-4-1.4c-1.1,0.2-1.8,0.9-2.5,1.7
		c-3.1,3.9-6.1,7.9-9.2,11.8c-0.2,0.2-0.2,0.2-0.4,0c-1.5-2-3.1-3.9-4.6-5.9c-1.7-2.1-3.3-4.2-5-6.3c-1.2-1.5-2.9-1.9-4.6-1.2
		c-1.6,0.6-2.7,2.2-2.8,3.8c0,1.1,0.4,1.9,1,2.8c3.5,4.5,7.1,9,10.6,13.6c0.2,0.2,0.2,0.3,0,0.5c-3.6,4.6-7.2,9.2-10.8,13.8
		c-1.5,2-3,4-4.8,5.8c-2.3,2.4-4.9,4.2-8,5.2c-1.3,0.4-2.5,0.6-3.9,0.6c-9.9,0-19.8,0-29.7,0c-0.1,0-0.3,0-0.4,0l0,4L154.5,79.4z"/>
	<path class="st1" d="M151.1,50.1c0,8.6-5.2,16.3-13.1,19.6c-3.1,1.3-6.3,1.7-9.7,1.5c-9.2-0.8-16.8-7.6-18.7-16.6
		c-1.6-7.8,1-15.6,7.1-20.7c3-2.6,6.6-4.1,10.5-4.7c10.9-1.5,20.9,5.7,23.3,16.2C150.9,46.9,151.1,48.5,151.1,50.1z M117.6,50.1
		c0,7,5.6,12.6,12.5,12.7c6.9,0,12.5-5.6,12.6-12.6c0-7-5.6-12.7-12.5-12.7C123.2,37.4,117.6,43.1,117.6,50.1z"/>
	<path class="st1" d="M51.2,50c0,8.7-5.1,16.4-13.1,19.7c-3.1,1.3-6.3,1.8-9.7,1.5c-9.2-0.8-16.8-7.6-18.7-16.6
		C7.8,45.3,12,36.1,20.2,31.6c3.7-2,7.6-2.9,11.8-2.5c9.2,0.8,16.7,7.5,18.7,16.5C51,47,51.2,48.5,51.2,50z M17.7,50.1
		c0,7,5.6,12.6,12.5,12.6c6.9,0,12.6-5.7,12.5-12.7c0-7-5.6-12.6-12.5-12.6C23.3,37.4,17.7,43.1,17.7,50.1z"/>
	<path class="st2" d="M117.6,50.1c0-7,5.6-12.6,12.5-12.6c6.9,0,12.6,5.7,12.5,12.7c0,7-5.6,12.6-12.6,12.6
		C123.2,62.7,117.6,57.1,117.6,50.1z"/>
	<path class="st2" d="M17.7,50.1c0-7,5.6-12.6,12.5-12.6c6.9,0,12.5,5.7,12.5,12.6c0,7-5.6,12.7-12.5,12.7
		C23.3,62.7,17.7,57.1,17.7,50.1z"/>
	<path class="st3" d="M5,80.4c0,0.4,0.1,0.8,0.2,1.1C6,85,9,87.6,12.5,88c0.1,0,0.2,0,0.2,0s40,0,79.9,0v0c30,0,54.7,0,54.7,0
		s0.2,0,0.2,0c3.5-0.4,6.4-3,7.2-6.4c0.1-0.4,0.2-0.7,0.2-1.1c0-0.3,0-0.7,0-1.1l-29.7,0l-35.7,0L5,79.4C5,79.7,5,80.1,5,80.4z"/>
	<path class="st3" d="M155,19.6c0-0.4-0.1-0.8-0.2-1.1c-0.8-3.4-3.7-6.1-7.2-6.4c-0.1,0-0.2,0-0.2,0s-40,0-79.9,0v0
		c-30,0-54.7,0-54.7,0s-0.2,0-0.2,0C9,12.4,6,15,5.2,18.4c-0.1,0.4-0.2,0.7-0.2,1.1c0,0.3,0,0.7,0,1.1l29.7,0l35.7,0l84.5,0
		C155,20.3,155,19.9,155,19.6z"/>
</g>
</svg>
