<?xml version="1.0" encoding="utf-8"?>
<!-- Generator: Adobe Illustrator 24.1.0, SVG Export Plug-In . SVG Version: 6.00 Build 0)  -->
<svg version="1.1" id="prefix__Cards" xmlns="http://www.w3.org/2000/svg" xmlns:xlink="http://www.w3.org/1999/xlink" x="0px"
	 y="0px" viewBox="0 0 160 100" style="enable-background:new 0 0 160 100;" xml:space="preserve">
<style type="text/css">
	.st0{fill:#253B80;}
	.st1{fill:#179BD7;}
	.st2{fill:#222D65;}
</style>
<g>
	<g id="Group_3322">
		<path id="Path_4706" class="st0" d="M26.5,57.5h-11c-0.7,0-1.4,0.6-1.6,1.3L9.6,86.9c-0.1,0.5,0.2,1,0.7,1.1h5.3
			c0.7,0,1.4-0.6,1.6-1.3l1.2-7.6c0.1-0.8,0.8-1.3,1.6-1.3h3.5c6.1,0.7,11.7-3.7,12.4-9.8c0-0.2,0-0.4,0.1-0.6c0.6-2.4,0.1-5-1.4-7
			C32.3,58.3,29.4,57.3,26.5,57.5z M27.7,67.9c-0.6,3.9-3.6,3.9-6.6,3.9h-1.6l1.2-7.4c0.1-0.4,0.5-0.7,0.9-0.7h0.7
			c2,0,3.8,0,4.8,1.1C27.8,65.7,28,66.8,27.7,67.9z M59.2,67.7H54c-0.4,0-0.8,0.3-0.9,0.7l-0.2,1.4l-0.3-0.5
			c-1.6-1.6-3.9-2.4-6.2-2.2c-6,0.1-11,4.6-11.7,10.6c-0.5,2.9,0.2,5.8,1.9,8.1c1.7,1.9,4.2,2.8,6.7,2.6c2.7,0,5.3-1,7.3-3l-0.2,1.4
			c-0.1,0.5,0.2,0.9,0.7,1.1h4.9c0.7,0,1.4-0.6,1.6-1.3l2.9-18c0.1-0.5-0.2-0.9-0.7-1.1C59.4,67.6,59.3,67.7,59.2,67.7z M51.9,77.9
			c-0.4,2.9-3,5.1-6,5c-1.3,0.1-2.6-0.4-3.6-1.4c-0.8-1-1.1-2.4-0.8-3.7c0.4-2.9,2.9-5.1,5.8-5c1.3-0.1,2.6,0.4,3.5,1.4
			C51.8,75.1,52.2,76.5,51.9,77.9z M87.2,67.7H82c-0.5,0-1,0.3-1.3,0.7L73.4,79l-3.1-10.4c-0.2-0.6-0.8-1-1.4-1.1h-5.2
			c-0.5,0-0.9,0.4-0.9,0.9c0,0,0,0,0,0.1v0.2l5.8,17l-5.5,7.8c-0.3,0.4-0.2,1,0.2,1.3c0.1,0.1,0.3,0.1,0.5,0.1H69
			c0.5,0,0.9-0.2,1.3-0.6L87.9,69c0.3-0.4,0.2-1-0.2-1.3C87.5,67.7,87.3,67.7,87.2,67.7L87.2,67.7z"/>
		<path id="Path_4707" class="st1" d="M104.7,57.5h-11c-0.7,0-1.4,0.6-1.6,1.3l-4.4,28.1c-0.1,0.5,0.2,0.9,0.7,1.1h5.7
			c0.5,0,1-0.4,1.1-0.9l1.3-8c0.1-0.8,0.8-1.3,1.6-1.3h3.5c6.2,0.7,11.7-3.7,12.4-9.8c0-0.2,0-0.4,0.1-0.6c0.6-2.4,0.1-5-1.4-7
			C110.5,58.2,107.6,57.2,104.7,57.5z M105.9,67.9c-0.6,3.9-3.6,3.9-6.6,3.9h-1.7l1.2-7.4c0.1-0.4,0.5-0.7,0.9-0.7h0.7
			c2,0,3.8,0,4.8,1.1C106,65.5,106.2,66.4,105.9,67.9z M137.5,67.7h-5.2c-0.4,0-0.8,0.3-0.9,0.7l-0.2,1.4l-0.3-0.5
			c-1.6-1.6-3.9-2.4-6.2-2.2c-6,0.1-11,4.6-11.7,10.6c-0.5,2.9,0.2,5.8,1.9,8.1c1.7,1.9,4.2,2.8,6.7,2.6c2.7,0,5.3-1,7.3-3l-0.2,1.4
			c-0.1,0.5,0.2,0.9,0.7,1.1h4.9c0.7,0,1.4-0.6,1.6-1.3l2.9-18c0.1-0.5-0.2-0.9-0.7-1.1C137.7,67.6,137.6,67.7,137.5,67.7z
			 M130.1,77.9c-0.4,2.9-3,5.1-6,5c-2.2,0.2-4.3-1.4-4.5-3.6c-0.1-0.5,0-1,0.1-1.5c0.4-2.9,2.9-5.1,5.8-5c1.3-0.1,2.6,0.4,3.5,1.4
			C130,75.1,130.4,76.5,130.1,77.9z M143.7,58.3l-4.5,28.6c-0.1,0.5,0.2,0.9,0.7,1.1h4.6c0.7,0,1.4-0.6,1.6-1.3l4.4-28.1
			c0.1-0.5-0.2-0.9-0.7-1.1h-5.2C144.1,57.5,143.7,57.9,143.7,58.3C143.7,58.3,143.7,58.3,143.7,58.3z"/>
	</g>
	<g id="Group_3323">
		<path id="Path_4708" class="st0" d="M71.9,48.3l0.8-4.9h-9.9L68.3,7c0-0.2,0.2-0.3,0.5-0.3h13.8C86,6.2,89.5,7.2,92,9.5
			c0.8,0.8,1.3,1.8,1.6,2.9c0.2,1.3,0.2,2.6,0,3.9v1.1l0.8,0.5c0.6,0.3,1.1,0.7,1.6,1.2c0.7,0.8,1.2,1.8,1.3,2.9
			c0.2,1.4,0.1,2.8-0.2,4.2c-0.3,1.7-0.9,3.3-1.7,4.8c-0.7,1.2-1.6,2.2-2.8,3c-1.1,0.7-2.4,1.3-3.7,1.7c-1.5,0.4-3,0.5-4.5,0.5h-1.1
			c-1.6,0-3,1.2-3.2,2.9v0.3l-1.3,8.7l-0.1,0.3c0,0.1,0,0.1-0.1,0.2h-0.1C78.5,48.3,71.9,48.3,71.9,48.3z"/>
		<path id="Path_4709" class="st1" d="M95.2,16.5c0,0.2-0.1,0.6-0.1,0.8C93.3,26.8,87,30,79,30h-4c-1,0-1.8,0.7-1.9,1.7l-2.2,13.2
			l-0.6,3.8c-0.1,0.6,0.3,1.1,0.8,1.2h7.4c0.8,0,1.5-0.6,1.7-1.4l0.1-0.3l1.3-8.7l0.1-0.5c0.1-0.8,0.8-1.4,1.7-1.4h1.1
			c6.9,0.8,13.2-4.2,14.1-11.1c0.9-2.9,0.3-5.9-1.4-8.3C96.6,17.4,96,16.8,95.2,16.5z"/>
		<path id="Path_4710" class="st2" d="M93.3,15.7c-0.6-0.2-1.2-0.3-1.8-0.4c-1.2-0.2-2.4-0.3-3.6-0.2H77.1c-0.8,0-1.6,0.6-1.7,1.4
			l-2.3,14.7l-0.1,0.5c0.1-1,1-1.7,1.9-1.7h4c8,0,14.3-3.2,16.1-12.6c0-0.2,0.1-0.6,0.1-0.8c-0.5-0.3-1-0.5-1.6-0.6
			C93.5,15.8,93.4,15.8,93.3,15.7z"/>
		<path id="Path_4711" class="st0" d="M75.3,16.5c0.1-0.8,0.8-1.4,1.7-1.4h10.9c1.2,0,2.4,0.1,3.6,0.2c0.7,0.1,1.5,0.3,2.2,0.5
			c0.6,0.2,1.1,0.3,1.6,0.6c0.7-2.8,0-5.8-1.9-8c-2.9-2.6-6.7-3.8-10.6-3.3H68.9c-1,0-1.8,0.7-1.9,1.7l-5.8,36.7
			c-0.1,0.6,0.3,1.2,0.9,1.3c0,0,0,0,0.1,0h8.8l2.2-13.7C73.1,31.2,75.3,16.5,75.3,16.5z"/>
	</g>
</g>
</svg>
