<?xml version="1.0" encoding="utf-8"?>
<!-- Generator: Adobe Illustrator 24.1.0, SVG Export Plug-In . SVG Version: 6.00 Build 0)  -->
<svg version="1.1" id="prefix__Cards" xmlns="http://www.w3.org/2000/svg" xmlns:xlink="http://www.w3.org/1999/xlink" x="0px"
	 y="0px" viewBox="0 0 160 100" style="enable-background:new 0 0 160 100;" xml:space="preserve">
<style type="text/css">
	.st0{fill:#353185;}
	.st1{fill:#FD9403;}
</style>
<g>
	<path class="st0" d="M18.6,57.7c0,0,0.2,0.7,0.3,1.1c0.3,0.9,0.6,1.7,1,2.6c1.7,3.6,8,6.9,12.3,2.5c2.6-2.7,1.5-5.5-0.8-7
		c-1.1-0.7-2.3-1.1-3.6-1.5c-3.9-1.3-7.8-2.5-11.7-3.8c-2.5-0.9-4.8-2.2-6.7-4.2C4,41.2,5.8,32.1,13,28.2c4.9-2.7,10-3.9,15.5-3.4
		c4.6,0.4,9,1.5,12.9,4c3.4,2.2,4.2,5.9,5.1,9.6c0.1,0.3,0.1,0.9,0.1,0.9L33,39.9c0,0-0.8-1.3-1.4-2.3c-0.9-1.6-2.2-3-4.1-3.5
		c-1.7-0.5-3.8-0.3-5.4,0.7c-1.6,1-2.7,3.6-1,5.1c0.9,0.8,2.3,1.1,3.4,1.4c1.4,0.4,2.7,0.8,4.1,1.2c2.7,0.7,5.5,1.4,8.2,2.3
		c1.4,0.5,2.8,1,4.1,1.7c4.7,2.4,7.2,6.3,7.3,11.5c0.2,5.9-2.1,10.6-7.2,13.8c-3.2,1.9-6.7,2.8-10.4,3.3c-5.3,0.7-10.5,0.1-15.5-1.6
		c-5.8-1.9-8.7-6.2-9.8-12C5.2,60.7,5,58.6,5,58.6L18.6,57.7z"/>
	<path class="st0" d="M91.4,35.9c-1.1-4.9-4.2-8-9.3-9c-2.3-0.5-4.6-0.6-6.9-0.6c-3.3,0-6.6,0-9.9,0v0H50.6v48h14.7V56.1
		c1,0,1.8,0,1.8,0c4,0,7.9,0.2,11.9-0.2c5-0.5,8.8-2.7,11.2-7.3C92.4,44.5,92.3,40.2,91.4,35.9z M72.2,46.6c-1.7,0.2-6.7,0-6.8,0
		l-0.1,0V35.8c2.7,0,5.9,0,6.8,0.1c2.9,0.3,4.8,2.7,4.8,5.7C76.9,44.3,75.1,46.3,72.2,46.6z"/>
	<polygon class="st1" points="108.9,36.9 108.9,43.3 132,43.3 132,54 108.9,54 108.9,63.4 134.3,63.4 134.3,74.2 94.2,74.2 
		94.2,26.2 134.3,26.2 134.3,36.9 	"/>
	<g>
		<polygon class="st0" points="155,26.2 155,44.3 146.7,34.1 146.7,43.3 140.3,43.3 140.3,26.2 		"/>
		<polygon class="st0" points="155,53 155,74.2 140.3,74.2 140.3,54 146.7,54 146.7,63.2 		"/>
	</g>
</g>
</svg>
