<?xml version="1.0" encoding="utf-8"?>
<!-- Generator: Adobe Illustrator 24.1.0, SVG Export Plug-In . SVG Version: 6.00 Build 0)  -->
<svg version="1.1" id="prefix__Cards" xmlns="http://www.w3.org/2000/svg" xmlns:xlink="http://www.w3.org/1999/xlink" x="0px"
	 y="0px" viewBox="0 0 160 100" style="enable-background:new 0 0 160 100;" xml:space="preserve">
<style type="text/css">
	.st0{fill:#1A1F71;}
</style>
<path id="Path_4021" class="st0" d="M61.9,26.6L42.3,73.4H29.5L19.8,36c-0.2-1.8-1.2-3.4-2.9-4.1c-3.8-1.8-7.8-3.1-12-4l0.3-1.4
	h20.6c2.8,0,5.2,2,5.6,4.8l5.1,27.2l12.6-31.9L61.9,26.6L61.9,26.6L61.9,26.6z M79.3,26.6l-10,46.9H57.1l10-46.9H79.3z M112.1,58.2
	c0-12.4-17.1-13.1-17-18.6c0-1.7,1.6-3.5,5.1-3.9c4.1-0.4,8.2,0.3,12,2.1l2.1-9.9c-3.6-1.4-7.5-2.1-11.3-2.1
	c-12,0-20.4,6.4-20.5,15.5c-0.1,6.7,6,10.5,10.6,12.8c4.7,2.3,6.3,3.7,6.3,5.8c0,3.1-3.7,4.5-7.3,4.6c-4.3,0.1-8.6-0.9-12.5-2.9
	l-2.2,10.3c4.3,1.7,8.9,2.5,13.5,2.5C103.7,74.2,112.1,67.9,112.1,58.2L112.1,58.2z M143.8,73.5H155l-9.8-46.9h-10.3
	c-2.3,0-4.3,1.3-5.2,3.4l-18.2,43.4h12.7l2.5-7h15.6L143.8,73.5z M130.3,56.9l6.4-17.6l3.7,17.6H130.3z"/>
</svg>
