<?xml version="1.0" encoding="utf-8"?>
<!-- Generator: Adobe Illustrator 24.1.0, SVG Export Plug-In . SVG Version: 6.00 Build 0)  -->
<svg version="1.1" id="prefix__Cards" xmlns="http://www.w3.org/2000/svg" xmlns:xlink="http://www.w3.org/1999/xlink" x="0px"
	 y="0px" viewBox="0 0 160 100" style="enable-background:new 0 0 160 100;" xml:space="preserve">
<style type="text/css">
	.st0{clip-path:url(#SVGID_2_);}
	.st1{fill:#AA8FFF;}
</style>
<g id="ZIP">
	<g id="Group_3280">
		<g id="Group_3279">
			<g id="Group_3278">
				<g id="Group_3277">
					<g>
						<defs>
							<rect id="SVGID_1_" x="5" y="22.2" width="150" height="55.7"/>
						</defs>
						<clipPath id="SVGID_2_">
							<use xlink:href="#SVGID_1_"  style="overflow:visible;"/>
						</clipPath>
						<g id="Group_3276" class="st0">
							<g id="Group_3275">
								<path id="Path_4676" d="M8.8,66.6l1.3,10.6h45.5l-1.5-12.1H32.9l-0.2-1.5l19.6-13.7L51,39.3H5.5L7,51.4h21.3l0.2,1.5
									L8.8,66.6z"/>
								<path id="Path_4677" class="st1" d="M56.3,39.2l4.6,38h45.6l-4.6-38H56.3z"/>
								<path id="Path_4678" d="M154.3,52.9c-1-8.4-8.5-14.4-16.9-13.7h-30.3l4.6,38h13.6l-0.9-7.6H139
									C150.3,69.6,155.5,62.5,154.3,52.9z M137.5,58.9h-14.3l-1.1-9.1h14.3c2.7-0.3,5.1,1.6,5.3,4.3c0,0.1,0,0.2,0,0.2
									c0.3,2.2-1.1,4.2-3.3,4.5C138.2,59,137.8,59,137.5,58.9L137.5,58.9z"/>
								<path id="Path_4679" d="M69.9,34.2c2.4-3.2,1.6-7.8-1.6-10.1c-2.7-2-6.4-1.8-8.9,0.3c-2.4,3.2-1.6,7.8,1.6,10.1
									C63.7,36.5,67.4,36.4,69.9,34.2z"/>
							</g>
						</g>
					</g>
				</g>
			</g>
		</g>
	</g>
</g>
</svg>
